<svg xmlns="http://www.w3.org/2000/svg" xmlns:xlink="http://www.w3.org/1999/xlink" width="180" zoomAndPan="magnify" viewBox="0 0 135 40.499999" height="54" preserveAspectRatio="xMidYMid meet" version="1.0"><defs><g/><clipPath id="64d8747b5e"><path d="M 10 24 L 14 24 L 14 29.398438 L 10 29.398438 Z M 10 24 " clip-rule="nonzero"/></clipPath><clipPath id="f302797788"><path d="M 1.5625 10.945312 L 20 10.945312 L 20 29.398438 L 1.5625 29.398438 Z M 1.5625 10.945312 " clip-rule="nonzero"/></clipPath><clipPath id="98440d9130"><path d="M 14 10.945312 L 18 10.945312 L 18 16 L 14 16 Z M 14 10.945312 " clip-rule="nonzero"/></clipPath><clipPath id="7cb32f508b"><path d="M 8 10.945312 L 26.726562 10.945312 L 26.726562 29.398438 L 8 29.398438 Z M 8 10.945312 " clip-rule="nonzero"/></clipPath></defs><g clip-path="url(#64d8747b5e)"><path fill="#02618f" d="M 10.597656 25.992188 L 10.597656 29.375 L 13.628906 26.289062 L 11.96875 24.597656 L 10.597656 25.992188 " fill-opacity="1" fill-rule="nonzero"/></g><g clip-path="url(#f302797788)"><path fill="#028ac4" d="M 19.632812 20.171875 L 10.597656 10.964844 L 1.5625 20.171875 L 10.597656 29.375 L 10.597656 25.992188 L 4.882812 20.171875 L 10.597656 14.347656 L 16.3125 20.171875 L 15.285156 21.21875 L 14.660156 21.851562 L 17.609375 24.855469 L 16.59375 23.265625 L 19.632812 20.171875 " fill-opacity="1" fill-rule="nonzero"/></g><g clip-path="url(#98440d9130)"><path fill="#028ac4" d="M 17.691406 10.964844 L 14.660156 14.054688 L 16.320312 15.746094 L 17.691406 14.347656 L 17.691406 10.964844 " fill-opacity="1" fill-rule="nonzero"/></g><g clip-path="url(#7cb32f508b)"><path fill="#02618f" d="M 17.691406 10.964844 L 17.691406 14.347656 L 23.40625 20.171875 L 17.691406 25.992188 L 11.976562 20.171875 L 13.628906 18.488281 L 10.679688 15.484375 L 11.6875 17.085938 L 8.660156 20.171875 L 17.691406 29.375 L 26.726562 20.171875 L 17.691406 10.964844 " fill-opacity="1" fill-rule="nonzero"/></g><g fill="#028ac4" fill-opacity="1"><g transform="translate(29.493482, 25.035388)"><g><path d="M 10.289062 0 L 10.289062 -11.777344 L 7.691406 -11.777344 L 7.691406 -4.433594 L 3.636719 -11.777344 L 1.039062 -11.777344 L 1.039062 0 L 3.636719 0 L 3.636719 -7.34375 L 7.691406 0 Z M 10.289062 0 "/></g></g></g><g fill="#028ac4" fill-opacity="1"><g transform="translate(44.280281, 25.035388)"><g><path d="M 10.132812 -5.90625 C 10.132812 -4.085938 8.488281 -2.425781 6.667969 -2.425781 C 4.847656 -2.425781 3.203125 -4.085938 3.203125 -5.90625 C 3.203125 -7.722656 4.847656 -9.371094 6.667969 -9.371094 C 8.488281 -9.371094 10.132812 -7.722656 10.132812 -5.90625 Z M 12.730469 -5.890625 C 12.730469 -9.144531 9.925781 -11.949219 6.667969 -11.949219 C 3.410156 -11.949219 0.605469 -9.144531 0.605469 -5.890625 C 0.605469 -2.632812 3.410156 0.171875 6.667969 0.171875 C 9.925781 0.171875 12.730469 -2.632812 12.730469 -5.890625 Z M 12.730469 -5.890625 "/></g></g></g><g fill="#028ac4" fill-opacity="1"><g transform="translate(61.075238, 25.035388)"><g><path d="M 11.847656 -11.777344 L 9.039062 -11.777344 L 6.597656 -5.160156 L 5.957031 -3.308594 L 5.316406 -5.160156 L 2.890625 -11.777344 L 0.0859375 -11.777344 L 4.847656 0 L 7.082031 0 Z M 11.847656 -11.777344 "/></g></g></g><g fill="#028ac4" fill-opacity="1"><g transform="translate(76.46794, 25.035388)"><g><path d="M 7.863281 -2.355469 L 3.636719 -2.355469 L 3.636719 -4.726562 L 7.691406 -4.726562 L 7.691406 -7.082031 L 3.636719 -7.082031 L 3.636719 -9.421875 L 7.863281 -9.421875 L 7.863281 -11.777344 L 1.039062 -11.777344 L 1.039062 0 L 7.863281 0 Z M 7.863281 -2.355469 "/></g></g></g><g fill="#ff0808" fill-opacity="1"><g transform="translate(88.162232, 25.035388)"><g><path d="M 1.039062 0 L 7.863281 0 L 7.863281 -2.355469 L 3.636719 -2.355469 L 3.636719 -11.777344 L 1.039062 -11.777344 Z M 1.039062 0 "/></g></g></g><g fill="#ff0808" fill-opacity="1"><g transform="translate(100.092589, 25.035388)"><g><path d="M 3.636719 0 L 3.636719 -11.777344 L 1.039062 -11.777344 L 1.039062 0 Z M 3.636719 0 "/></g></g></g><g fill="#ff0808" fill-opacity="1"><g transform="translate(108.231668, 25.035388)"><g><path d="M 10.289062 0 L 10.289062 -11.777344 L 7.691406 -11.777344 L 7.691406 -4.433594 L 3.636719 -11.777344 L 1.039062 -11.777344 L 1.039062 0 L 3.636719 0 L 3.636719 -7.34375 L 7.691406 0 Z M 10.289062 0 "/></g></g></g><g fill="#ff0808" fill-opacity="1"><g transform="translate(123.018466, 25.035388)"><g><path d="M 3.636719 -5.265625 L 7.359375 0 L 10.859375 0 L 6.164062 -5.890625 L 10.6875 -11.777344 L 7.359375 -11.777344 L 3.636719 -6.511719 L 3.636719 -11.777344 L 1.039062 -11.777344 L 1.039062 0 L 3.636719 0 Z M 3.636719 -5.265625 "/></g></g></g></svg>