<?xml version="1.0" encoding="utf-8"?>
<!-- Generator: Adobe Illustrator 26.0.1, SVG Export Plug-In . SVG Version: 6.00 Build 0)  -->
<svg version="1.1" id="Layer_1" xmlns="http://www.w3.org/2000/svg" xmlns:xlink="http://www.w3.org/1999/xlink" x="0px" y="0px"
	 viewBox="0 0 188.94 26.96" style="enable-background:new 0 0 188.94 26.96;" xml:space="preserve">
<style type="text/css">
	.st0{display:none;}
	.st1{display:inline;}
	.st2{fill:#231F20;}
	.st3{fill:#FFFFFF;}
	.st4{display:inline;fill-rule:evenodd;clip-rule:evenodd;fill:#ED1C24;}
	.st5{display:inline;fill-rule:evenodd;clip-rule:evenodd;fill:#0089D1;}
	.st6{display:inline;fill-rule:evenodd;clip-rule:evenodd;fill:#231F20;}
	.st7{display:inline;fill-rule:evenodd;clip-rule:evenodd;fill:#FFFFFF;}
	.st8{display:inline;fill:#FFFFFF;}
	.st9{display:inline;fill:#FADD02;}
	.st10{fill-rule:evenodd;clip-rule:evenodd;fill:#0089D1;}
	.st11{fill-rule:evenodd;clip-rule:evenodd;fill:#606060;}
	.st12{fill:#ED1C24;}
	.st13{fill-rule:evenodd;clip-rule:evenodd;}
	.st14{fill-rule:evenodd;clip-rule:evenodd;fill:#FFFFFF;}
	.st15{fill-rule:evenodd;clip-rule:evenodd;fill:#FF161F;}
	.st16{fill:#028AC4;}
	.st17{fill-rule:evenodd;clip-rule:evenodd;fill:none;}
	.st18{display:inline;fill:none;stroke:#FFFFFF;stroke-miterlimit:10;}
	.st19{display:inline;fill-rule:evenodd;clip-rule:evenodd;fill:#028AC4;}
	.st20{display:inline;fill-rule:evenodd;clip-rule:evenodd;fill:#FF0808;}
</style>
<g>
	<g>
		<g>
			<path class="st12" d="M1.62,17.46c0.81,0,1.57-0.01,2.34,0.02c0.11,0,0.25,0.21,0.3,0.35c1.15,2.88,3.15,4.96,5.98,6.18
				c4.54,1.96,9.83,0.6,12.93-3.27c0.09-0.11,0.18-0.23,0.28-0.33c-1.57,2.94-5.94,6.14-11.34,5.63
				C6.16,25.48,2.49,20.94,1.62,17.46z"/>
			<path class="st12" d="M24.27,10.45c-0.66,0-1.3-0.01-1.93,0.01c-0.24,0.01-0.28-0.14-0.35-0.3C20.8,7.6,18.86,5.89,16.15,5.1
				c-3.7-1.08-7.69,0.34-9.94,3.51c-0.07,0.1-0.15,0.2-0.24,0.3c1.27-2.6,4.81-5.46,9.45-5.16C19.87,4.03,23.23,7.2,24.27,10.45z"/>
		</g>
		<g>
			<path class="st16" d="M1.77,9.72c1.35-3.99,5.15-7.35,9.77-7.96C17.37,1,21.75,4.29,23.47,7.34c-0.08-0.1-0.17-0.19-0.25-0.29
				c-1.81-2.27-4.15-3.65-7.01-4.1C11.41,2.2,6.63,4.78,4.59,9.19C4.4,9.6,4.19,9.76,3.74,9.73C3.1,9.69,2.46,9.72,1.77,9.72z"/>
			<path class="st16" d="M5.99,18.86c0.37,0.43,0.74,0.94,1.18,1.38c4.48,4.51,11.91,3.28,14.71-2.43c0.14-0.29,0.29-0.4,0.61-0.38
				c0.56,0.03,1.13,0.01,1.71,0.01c-0.84,2.71-3.88,6.08-8.46,6.51C10.92,24.41,7.22,21.44,5.99,18.86z"/>
		</g>
		<g>
			<g>
				<path class="st16" d="M17.14,15.7v-0.78c-0.1-0.04-0.21-0.07-0.31-0.11l-1.09-0.39c-0.17-0.08-0.39-0.15-0.55-0.19
					c0.01,0.3,0,0.59,0,0.91c0.03,1.54-0.27,1.14,0.27,1.74c0.17,0.19,0.31,0.3,0.36,0.43h4.24v-1.6H17.14z M15.19,12.65
					c-0.01,0.26,0.01,0.2,0.23,0.35c0.18,0.12,1.23,0.87,1.72,1.27v-4.11h-2.03v0.81C15.29,11.4,15.2,12.12,15.19,12.65z"/>
			</g>
		</g>
		<g>
			<path class="st12" d="M12.24,10.17l-1.14,2.19c-0.4,0.71-0.81,1.67-1.12,2.5H9.94c0.1-0.94,0.15-1.94,0.15-3v-1.69H8.34v7.13
				h2.02l1.21-2.37c0.4-0.75,0.86-1.71,1.21-2.57h0.03c-0.02,0.54-0.04,1.11-0.05,1.72c0.58-0.43,1.46-1.07,1.65-1.24
				c0-0.39-0.03-1.37,0.08-1.78v-0.89H12.24z M14.39,14.24c-0.24,0-1.04,0.34-1.65,0.56c-0.01,0.25-0.01,0.5-0.01,0.75v1.75h1
				c0.04-0.09,0.16-0.2,0.39-0.47c0.42-0.46,0.35-0.18,0.3-0.79C14.37,15.49,14.44,14.66,14.39,14.24z"/>
		</g>
		<path class="st17" d="M17.14,14.28v0.64c-0.1-0.04-0.21-0.07-0.31-0.11l-1.09-0.39c-0.17-0.08-0.39-0.15-0.55-0.19
			c0.01,0.3,0,0.59,0,0.91c0.03,1.54-0.27,1.14,0.27,1.74c0.17,0.19,0.31,0.3,0.36,0.43c0.05,0.1,0.04,0.21-0.06,0.36
			c-0.73-0.42-1.29-0.43-1.97-0.01c-0.06-0.19-0.09-0.26-0.05-0.35c0.04-0.09,0.16-0.2,0.39-0.47c0.42-0.46,0.35-0.18,0.3-0.79
			c-0.05-0.55,0.02-1.37-0.03-1.8c-0.24,0-1.04,0.34-1.65,0.56c0-0.25,0-0.49,0.01-0.73c0.58-0.43,1.46-1.07,1.65-1.24
			c0-0.39-0.03-1.37,0.08-1.78c0.01-0.03,0.03-0.07,0.04-0.09c0.07-0.15,0.23-0.37,0.4-0.24c0.08,0.06,0.15,0.16,0.19,0.26
			c0.18,0.43,0.09,1.15,0.08,1.68c-0.01,0.26,0.01,0.2,0.23,0.35C15.6,13.13,16.65,13.88,17.14,14.28z"/>
	</g>
	<g>
		<path d="M34.12,21.56c-0.24,0.11-0.72,0.23-1.34,0.23c-1.43,0-2.5-0.87-2.5-2.46c0-1.53,1.08-2.55,2.65-2.55
			c0.63,0,1.03,0.13,1.21,0.21l-0.16,0.51c-0.25-0.11-0.6-0.2-1.02-0.2c-1.19,0-1.98,0.73-1.98,2.01c0,1.19,0.72,1.95,1.95,1.95
			c0.4,0,0.81-0.08,1.08-0.2L34.12,21.56z"/>
		<path d="M36.93,21.72l-0.06-0.44h-0.02c-0.2,0.27-0.59,0.52-1.12,0.52c-0.74,0-1.11-0.5-1.11-1c0-0.84,0.78-1.31,2.19-1.3v-0.07
			c0-0.28-0.08-0.81-0.83-0.8c-0.34,0-0.69,0.1-0.95,0.26l-0.15-0.42c0.3-0.19,0.74-0.31,1.2-0.31c1.11,0,1.39,0.73,1.39,1.43v1.3
			c0,0.3,0.01,0.6,0.05,0.83H36.93z M36.83,19.94c-0.72-0.01-1.54,0.11-1.54,0.78c0,0.42,0.29,0.61,0.62,0.61
			c0.48,0,0.78-0.29,0.89-0.58c0.02-0.07,0.03-0.14,0.03-0.2V19.94z"/>
		<path d="M38.58,19.17c0-0.36-0.01-0.65-0.03-0.94h0.59l0.04,0.57h0.02c0.18-0.33,0.6-0.65,1.21-0.65c0.5,0,1.28,0.29,1.28,1.49
			v2.08h-0.66v-2.01c0-0.56-0.22-1.04-0.84-1.04c-0.44,0-0.77,0.3-0.89,0.65c-0.03,0.08-0.05,0.19-0.05,0.29v2.1h-0.66V19.17z"/>
		<path d="M44.82,21.72l-0.06-0.44h-0.02c-0.2,0.27-0.59,0.52-1.12,0.52c-0.74,0-1.11-0.5-1.11-1c0-0.84,0.78-1.31,2.19-1.3v-0.07
			c0-0.28-0.08-0.81-0.83-0.8c-0.34,0-0.69,0.1-0.95,0.26l-0.15-0.42c0.3-0.19,0.74-0.31,1.2-0.31c1.11,0,1.39,0.73,1.39,1.43v1.3
			c0,0.3,0.01,0.6,0.05,0.83H44.82z M44.72,19.94c-0.72-0.01-1.54,0.11-1.54,0.78c0,0.42,0.29,0.61,0.62,0.61
			c0.48,0,0.78-0.29,0.89-0.58c0.02-0.07,0.03-0.14,0.03-0.2V19.94z"/>
		<path d="M49.62,16.6v4.22c0,0.31,0.01,0.66,0.03,0.9h-0.59l-0.03-0.6h-0.02c-0.2,0.39-0.64,0.68-1.24,0.68
			c-0.88,0-1.56-0.71-1.56-1.77c-0.01-1.17,0.75-1.87,1.64-1.87c0.56,0,0.94,0.25,1.1,0.53h0.01V16.6H49.62z M48.96,19.65
			c0-0.08-0.01-0.19-0.03-0.27c-0.1-0.4-0.46-0.73-0.96-0.73c-0.69,0-1.1,0.58-1.1,1.34c0,0.71,0.37,1.3,1.08,1.3
			c0.44,0,0.85-0.29,0.97-0.76c0.02-0.08,0.03-0.17,0.03-0.27V19.65z"/>
		<path d="M51.51,17.24c0,0.22-0.16,0.39-0.42,0.39c-0.24,0-0.4-0.18-0.4-0.39c0-0.22,0.17-0.39,0.41-0.39
			C51.35,16.85,51.51,17.02,51.51,17.24z M50.77,21.72v-3.49h0.66v3.49H50.77z"/>
		<path d="M54.59,21.72l-0.06-0.44h-0.02c-0.2,0.27-0.59,0.52-1.12,0.52c-0.74,0-1.11-0.5-1.11-1c0-0.84,0.78-1.31,2.19-1.3v-0.07
			c0-0.28-0.08-0.81-0.83-0.8c-0.34,0-0.69,0.1-0.95,0.26l-0.15-0.42c0.3-0.19,0.74-0.31,1.2-0.31c1.11,0,1.39,0.73,1.39,1.43v1.3
			c0,0.3,0.01,0.6,0.05,0.83H54.59z M54.49,19.94c-0.72-0.01-1.54,0.11-1.54,0.78c0,0.42,0.29,0.61,0.62,0.61
			c0.48,0,0.78-0.29,0.89-0.58c0.02-0.07,0.03-0.14,0.03-0.2V19.94z"/>
		<path d="M56.24,19.17c0-0.36-0.01-0.65-0.03-0.94h0.59l0.04,0.57h0.02c0.18-0.33,0.6-0.65,1.21-0.65c0.5,0,1.28,0.29,1.28,1.49
			v2.08h-0.66v-2.01c0-0.56-0.22-1.04-0.84-1.04c-0.44,0-0.77,0.3-0.89,0.65c-0.03,0.08-0.05,0.19-0.05,0.29v2.1h-0.66V19.17z"/>
		<path d="M62.78,16.86v4.86h-0.66v-4.86H62.78z"/>
		<path d="M64.01,19.17c0-0.36-0.01-0.65-0.03-0.94h0.58l0.04,0.56h0.02c0.2-0.33,0.54-0.64,1.15-0.64c0.49,0,0.87,0.29,1.03,0.7
			h0.01c0.12-0.2,0.26-0.35,0.41-0.45c0.22-0.16,0.46-0.25,0.8-0.25c0.49,0,1.2,0.3,1.2,1.51v2.05h-0.65v-1.97
			c0-0.68-0.26-1.08-0.79-1.08c-0.38,0-0.67,0.26-0.79,0.57c-0.03,0.09-0.05,0.21-0.05,0.32v2.16H66.3v-2.09
			c0-0.56-0.26-0.96-0.76-0.96c-0.41,0-0.72,0.32-0.83,0.63c-0.03,0.09-0.05,0.2-0.05,0.31v2.1h-0.65V19.17z"/>
		<path d="M70.34,19.17c0-0.36-0.01-0.65-0.03-0.94h0.58l0.03,0.56h0.02c0.2-0.33,0.54-0.64,1.15-0.64c0.49,0,0.87,0.29,1.03,0.7
			h0.01c0.12-0.2,0.26-0.35,0.41-0.45c0.22-0.16,0.46-0.25,0.8-0.25c0.49,0,1.2,0.3,1.2,1.51v2.05H74.9v-1.97
			c0-0.68-0.26-1.08-0.79-1.08c-0.38,0-0.67,0.26-0.79,0.57c-0.03,0.09-0.05,0.21-0.05,0.32v2.16h-0.65v-2.09
			c0-0.56-0.26-0.96-0.76-0.96c-0.41,0-0.72,0.32-0.83,0.63c-0.03,0.09-0.05,0.2-0.05,0.31v2.1h-0.65V19.17z"/>
		<path d="M77.41,17.24c0,0.22-0.16,0.39-0.42,0.39c-0.24,0-0.4-0.18-0.4-0.39c0-0.22,0.17-0.39,0.41-0.39
			C77.25,16.85,77.41,17.02,77.41,17.24z M76.67,21.72v-3.49h0.66v3.49H76.67z"/>
		<path d="M81.62,18.23c-0.02,0.25-0.03,0.53-0.03,0.95v2.03c0,0.81-0.17,1.29-0.52,1.6c-0.36,0.31-0.87,0.42-1.33,0.42
			c-0.44,0-0.92-0.1-1.22-0.29l0.17-0.49c0.24,0.15,0.62,0.28,1.07,0.28c0.68,0,1.17-0.34,1.17-1.22v-0.39h-0.02
			c-0.2,0.33-0.6,0.59-1.16,0.59c-0.91,0-1.55-0.74-1.55-1.71c0-1.18,0.8-1.85,1.65-1.85c0.63,0,0.98,0.31,1.14,0.6H81l0.03-0.52
			H81.62z M80.93,19.6c0-0.1-0.01-0.2-0.04-0.28c-0.12-0.37-0.44-0.67-0.93-0.67c-0.63,0-1.09,0.51-1.09,1.32
			c0,0.68,0.37,1.26,1.08,1.26c0.41,0,0.78-0.25,0.92-0.65c0.04-0.1,0.05-0.23,0.05-0.34V19.6z"/>
		<path d="M82.68,19.32c0-0.41-0.01-0.76-0.03-1.09h0.58l0.03,0.68h0.02c0.17-0.47,0.57-0.76,1.02-0.76c0.07,0,0.12,0,0.18,0.02v0.6
			c-0.07-0.01-0.13-0.02-0.23-0.02c-0.47,0-0.8,0.34-0.89,0.81c-0.02,0.09-0.03,0.19-0.03,0.3v1.86h-0.66V19.32z"/>
		<path d="M87.16,21.72l-0.06-0.44h-0.02c-0.2,0.27-0.59,0.52-1.12,0.52c-0.74,0-1.11-0.5-1.11-1c0-0.84,0.78-1.31,2.19-1.3v-0.07
			c0-0.28-0.08-0.81-0.83-0.8c-0.34,0-0.69,0.1-0.95,0.26l-0.15-0.42c0.3-0.19,0.74-0.31,1.2-0.31c1.11,0,1.39,0.73,1.39,1.43v1.3
			c0,0.3,0.01,0.6,0.05,0.83H87.16z M87.06,19.94c-0.72-0.01-1.54,0.11-1.54,0.78c0,0.42,0.29,0.61,0.62,0.61
			c0.48,0,0.78-0.29,0.89-0.58c0.02-0.07,0.03-0.14,0.03-0.2V19.94z"/>
		<path d="M89.58,17.23v1h0.95v0.48h-0.95v1.88c0,0.43,0.13,0.68,0.5,0.68c0.17,0,0.3-0.02,0.38-0.05l0.03,0.48
			c-0.13,0.05-0.33,0.09-0.59,0.09c-0.3,0-0.56-0.1-0.72-0.27c-0.18-0.19-0.26-0.5-0.26-0.91v-1.9h-0.56v-0.48h0.56v-0.84
			L89.58,17.23z"/>
		<path d="M92.06,17.24c0,0.22-0.16,0.39-0.42,0.39c-0.24,0-0.4-0.18-0.4-0.39c0-0.22,0.17-0.39,0.41-0.39
			C91.9,16.85,92.06,17.02,92.06,17.24z M91.32,21.72v-3.49h0.66v3.49H91.32z"/>
		<path d="M96.42,19.94c0,1.29-0.94,1.86-1.81,1.86c-0.99,0-1.75-0.69-1.75-1.8c0-1.17,0.8-1.85,1.81-1.85
			C95.71,18.15,96.42,18.88,96.42,19.94z M93.53,19.98c0,0.77,0.46,1.34,1.11,1.34c0.64,0,1.11-0.57,1.11-1.36
			c0-0.59-0.31-1.34-1.1-1.34C93.87,18.63,93.53,19.32,93.53,19.98z"/>
		<path d="M97.3,19.17c0-0.36-0.01-0.65-0.03-0.94h0.59l0.04,0.57h0.02c0.18-0.33,0.6-0.65,1.21-0.65c0.5,0,1.28,0.29,1.28,1.49
			v2.08h-0.66v-2.01c0-0.56-0.22-1.04-0.84-1.04c-0.44,0-0.77,0.3-0.89,0.65c-0.03,0.08-0.05,0.19-0.05,0.29v2.1H97.3V19.17z"/>
		<path d="M103.09,20.95c0.29,0.18,0.72,0.31,1.17,0.31c0.67,0,1.07-0.34,1.07-0.83c0-0.45-0.28-0.72-0.96-0.96
			c-0.83-0.28-1.34-0.7-1.34-1.38c0-0.76,0.66-1.32,1.65-1.32c0.52,0,0.9,0.11,1.12,0.24l-0.18,0.51c-0.16-0.09-0.5-0.23-0.96-0.23
			c-0.7,0-0.96,0.4-0.96,0.73c0,0.45,0.31,0.67,1.01,0.93c0.86,0.32,1.3,0.72,1.3,1.43c0,0.75-0.57,1.4-1.78,1.4
			c-0.49,0-1.03-0.14-1.3-0.32L103.09,20.95z"/>
		<path d="M107.33,20.09c0.01,0.86,0.58,1.21,1.25,1.21c0.47,0,0.76-0.08,1.01-0.18l0.12,0.45c-0.23,0.1-0.64,0.22-1.22,0.22
			c-1.12,0-1.79-0.71-1.79-1.76c0-1.06,0.65-1.88,1.72-1.88c1.19,0,1.5,1,1.5,1.64c0,0.13-0.01,0.23-0.02,0.3H107.33z M109.27,19.63
			c0.01-0.4-0.17-1.03-0.91-1.03c-0.68,0-0.96,0.59-1.02,1.03H109.27z"/>
		<path d="M110.77,19.32c0-0.41-0.01-0.76-0.03-1.09h0.58l0.03,0.68h0.02c0.17-0.47,0.57-0.76,1.02-0.76c0.07,0,0.12,0,0.18,0.02
			v0.6c-0.07-0.01-0.13-0.02-0.23-0.02c-0.47,0-0.8,0.34-0.89,0.81c-0.02,0.09-0.03,0.19-0.03,0.3v1.86h-0.66V19.32z"/>
		<path d="M113.72,18.23l0.72,1.96c0.12,0.32,0.22,0.61,0.3,0.9h0.02c0.08-0.29,0.19-0.58,0.31-0.9l0.71-1.96h0.69l-1.43,3.49h-0.63
			l-1.39-3.49H113.72z"/>
		<path d="M117.87,17.24c0,0.22-0.16,0.39-0.42,0.39c-0.24,0-0.4-0.18-0.4-0.39c0-0.22,0.17-0.39,0.41-0.39
			C117.71,16.85,117.87,17.02,117.87,17.24z M117.13,21.72v-3.49h0.66v3.49H117.13z"/>
		<path d="M121.53,21.59c-0.17,0.08-0.56,0.2-1.05,0.2c-1.1,0-1.82-0.72-1.82-1.78c0-1.08,0.77-1.86,1.96-1.86
			c0.39,0,0.74,0.09,0.92,0.19l-0.15,0.49c-0.16-0.08-0.41-0.17-0.78-0.17c-0.83,0-1.29,0.6-1.29,1.32c0,0.81,0.54,1.31,1.27,1.31
			c0.37,0,0.62-0.09,0.81-0.17L121.53,21.59z"/>
		<path d="M122.67,20.09c0.01,0.86,0.58,1.21,1.25,1.21c0.47,0,0.76-0.08,1.01-0.18l0.12,0.45c-0.23,0.1-0.64,0.22-1.22,0.22
			c-1.12,0-1.79-0.71-1.79-1.76c0-1.06,0.65-1.88,1.72-1.88c1.19,0,1.5,1,1.5,1.64c0,0.13-0.01,0.23-0.02,0.3H122.67z M124.61,19.63
			c0.01-0.4-0.17-1.03-0.91-1.03c-0.68,0-0.96,0.59-1.02,1.03H124.61z"/>
		<path d="M126.02,21.07c0.2,0.12,0.55,0.25,0.88,0.25c0.48,0,0.71-0.23,0.71-0.52c0-0.31-0.19-0.47-0.68-0.64
			c-0.66-0.23-0.97-0.57-0.97-0.99c0-0.56,0.48-1.02,1.26-1.02c0.37,0,0.69,0.1,0.89,0.21l-0.16,0.46
			c-0.14-0.08-0.41-0.21-0.75-0.21c-0.39,0-0.6,0.22-0.6,0.48c0,0.29,0.21,0.42,0.69,0.59c0.63,0.22,0.95,0.53,0.96,1.05
			c0,0.62-0.5,1.05-1.36,1.05c-0.4,0-0.77-0.1-1.02-0.24L126.02,21.07z"/>
	</g>
	<g>
		<g>
			<g>
				<path class="st12" d="M29.53,13.6V2.48h3.51l1.77,3.41c0.6,1.1,1.25,2.59,1.74,3.9h0.05c-0.17-1.46-0.22-3.02-0.22-4.68V2.48
					h2.72V13.6h-3.14l-1.88-3.7c-0.62-1.18-1.34-2.67-1.87-4.02h-0.06c0.07,1.5,0.11,3.18,0.11,4.98v2.73H29.53z"/>
				<path class="st12" d="M51.62,7.93c0,3.58-2.15,5.85-5.58,5.85c-3.45,0-5.34-2.59-5.34-5.67c0-3.24,2.12-5.81,5.53-5.81
					C49.8,2.3,51.62,4.95,51.62,7.93z M43.85,8.06c0,2.09,0.91,3.37,2.33,3.37c1.45,0,2.28-1.39,2.28-3.4c0-1.91-0.86-3.37-2.3-3.37
					C44.76,4.66,43.85,6.01,43.85,8.06z"/>
				<path class="st12" d="M55.72,13.6L52.19,2.48h3.27l1.18,4.37c0.35,1.25,0.66,2.46,0.92,3.89h0.03c0.27-1.36,0.59-2.64,0.91-3.84
					l1.21-4.42h3.17L59.25,13.6H55.72z"/>
				<path class="st12" d="M71.07,9.12h-4v2.05h4.47v2.43H64.1V2.48h7.21v2.43h-4.24v1.79h4V9.12z"/>
				<path class="st16" d="M73.21,2.48h2.98v8.62h4.28v2.5h-7.26V2.48z"/>
				<path class="st16" d="M81.91,2.49V8.2c0.79-0.58,2.31-1.7,2.98-2.24V2.49H81.91z M81.91,9.35v4.25h2.16
					c0.06-0.17,0.26-0.36,0.67-0.84c0.05-0.06,0.1-0.11,0.16-0.17V8.26C84.22,8.43,82.83,9.04,81.91,9.35z"/>
				<path class="st16" d="M89.65,9.22c-0.06-0.02-0.11-0.04-0.18-0.06l-1.93-0.67c-0.19-0.08-0.4-0.16-0.59-0.22v4.4
					c0.04,0.04,0.08,0.09,0.14,0.15c0.31,0.35,0.57,0.55,0.67,0.79h1.92v-2.73C89.67,10.31,89.67,9.76,89.65,9.22z M93.8,2.49v2.62
					c0,1.66,0.05,3.22,0.22,4.68h-0.04c-0.49-1.3-1.15-2.79-1.75-3.9l-1.76-3.41h-3.51V6c0,0,0.01,0,0.02,0.01
					c0.27,0.21,1.71,1.23,2.66,1.94c-0.01-0.72-0.04-1.41-0.07-2.05h0.06c0.53,1.34,1.25,2.83,1.87,4.01l1.89,3.7h3.14V2.49H93.8z"
					/>
				<path class="st16" d="M98.58,2.48h2.95v4.72h0.04c0.22-0.42,0.47-0.82,0.71-1.22l2.14-3.5h3.66l-3.53,4.73l3.67,6.38h-3.46
					l-2.34-4.51l-0.89,1.14v3.37h-2.95V2.48z"/>
			</g>
		</g>
		<g>
			<path class="st16" d="M112.51,2.55V13.6h-1.38V2.55H112.51z"/>
			<path class="st16" d="M114.9,7.79c0-0.86-0.03-1.46-0.07-2.11h1.21l0.07,1.19h0.04c0.41-0.72,1.11-1.35,2.29-1.35
				c0.97,0,1.74,0.56,2.06,1.48h0.03c0.24-0.43,0.54-0.77,0.86-1c0.43-0.31,0.9-0.48,1.55-0.48c1.06,0,2.41,0.71,2.41,3.25v4.85
				h-1.36V8.97c0-1.39-0.44-2.32-1.54-2.32c-0.74,0-1.32,0.55-1.55,1.27c-0.06,0.21-0.1,0.46-0.1,0.72v4.97h-1.36V8.71
				c0-1.15-0.44-2.06-1.48-2.06c-0.79,0-1.4,0.64-1.61,1.4c-0.06,0.21-0.09,0.45-0.09,0.7v4.86h-1.36V7.79z"/>
			<path class="st16" d="M127.53,7.79c0-0.86-0.03-1.46-0.07-2.11h1.21l0.07,1.19h0.04c0.41-0.72,1.11-1.35,2.29-1.35
				c0.97,0,1.74,0.56,2.06,1.48h0.03c0.24-0.43,0.54-0.77,0.86-1c0.43-0.31,0.9-0.48,1.55-0.48c1.06,0,2.41,0.71,2.41,3.25v4.85
				h-1.36V8.97c0-1.39-0.44-2.32-1.54-2.32c-0.74,0-1.32,0.55-1.55,1.27c-0.06,0.21-0.1,0.46-0.1,0.72v4.97h-1.36V8.71
				c0-1.15-0.44-2.06-1.48-2.06c-0.79,0-1.4,0.64-1.61,1.4c-0.06,0.21-0.09,0.45-0.09,0.7v4.86h-1.36V7.79z"/>
			<path class="st16" d="M141.7,3.49c0,0.49-0.33,0.87-0.87,0.87c-0.49,0-0.83-0.38-0.83-0.87c0-0.5,0.35-0.88,0.85-0.88
				C141.36,2.61,141.7,2.98,141.7,3.49z M140.16,13.6V5.67h1.38v7.93H140.16z"/>
			<path class="st16" d="M150,5.67c-0.04,0.56-0.07,1.22-0.07,2.26v4.55c0,1.91-0.34,2.92-1.03,3.58c-0.69,0.66-1.69,0.92-2.66,0.92
				c-0.88,0-1.8-0.21-2.38-0.57l0.34-1.08c0.47,0.28,1.19,0.55,2.08,0.55c1.33,0,2.27-0.73,2.27-2.67v-0.86h-0.03
				c-0.38,0.71-1.16,1.22-2.22,1.22c-1.81,0-3.07-1.65-3.07-3.89c0-2.76,1.62-4.18,3.26-4.18c1.22,0,1.86,0.66,2.18,1.26h0.03
				l0.06-1.1H150z M148.56,8.67c0-0.23-0.02-0.44-0.08-0.63c-0.23-0.75-0.8-1.44-1.76-1.44c-1.24,0-2.08,1.18-2.08,3
				c0,1.7,0.75,2.88,2.06,2.88c0.74,0,1.45-0.45,1.74-1.38c0.07-0.24,0.1-0.51,0.1-0.75V8.67z"/>
			<path class="st16" d="M152.05,8.02c0-0.86-0.03-1.65-0.07-2.34h1.22l0.06,1.46h0.05c0.34-0.97,1.15-1.63,2.04-1.63
				c0.14,0,0.25,0.01,0.36,0.03v1.34c-0.13-0.02-0.25-0.03-0.42-0.03c-0.95,0-1.63,0.76-1.81,1.79c-0.04,0.2-0.05,0.44-0.05,0.69
				v4.29h-1.38V8.02z"/>
			<path class="st16" d="M160.96,13.6l-0.11-0.95h-0.04c-0.41,0.62-1.17,1.12-2.18,1.12c-1.44,0-2.26-1.06-2.26-2.27
				c0-1.94,1.67-2.94,4.35-2.93V8.37c0-0.77-0.21-1.83-1.65-1.82c-0.66,0-1.34,0.2-1.84,0.54l-0.31-0.94
				c0.56-0.37,1.45-0.64,2.39-0.64c2.17,0,2.79,1.47,2.79,3.12v3.11c0,0.65,0.02,1.33,0.11,1.87H160.96z M160.75,9.54
				c-1.29-0.02-3,0.21-3,1.8c0,0.97,0.59,1.39,1.24,1.39c0.9,0,1.5-0.58,1.7-1.29c0.04-0.15,0.06-0.32,0.06-0.45V9.54z"/>
			<path class="st16" d="M165.85,3.44v2.23h1.91v1.05h-1.91v4.41c0,1,0.31,1.47,1.01,1.47c0.32,0,0.56-0.04,0.74-0.09l0.06,1.06
				c-0.26,0.1-0.67,0.18-1.18,0.18c-0.61,0-1.13-0.19-1.46-0.57c-0.37-0.41-0.53-1.06-0.53-2.05V6.72h-1.15V5.67h1.15V3.81
				L165.85,3.44z"/>
			<path class="st16" d="M170.77,3.49c0,0.49-0.33,0.87-0.87,0.87c-0.49,0-0.83-0.38-0.83-0.87c0-0.5,0.35-0.88,0.85-0.88
				C170.43,2.61,170.76,2.98,170.77,3.49z M169.23,13.6V5.67h1.38v7.93H169.23z"/>
			<path class="st16" d="M179.31,9.58c0,2.98-1.85,4.19-3.55,4.19c-1.93,0-3.44-1.49-3.44-4.09c0-2.73,1.61-4.18,3.56-4.18
				C177.89,5.51,179.31,7.06,179.31,9.58z M173.72,9.65c0,1.61,0.77,3.06,2.09,3.06c1.29,0,2.08-1.46,2.08-3.09
				c0-1.3-0.54-3.05-2.08-3.05C174.3,6.57,173.72,8.23,173.72,9.65z"/>
			<path class="st16" d="M181.01,7.79c0-0.86-0.03-1.46-0.07-2.11h1.22l0.07,1.2h0.04c0.37-0.71,1.21-1.36,2.38-1.36
				c1.09,0,2.53,0.7,2.53,3.19v4.91h-1.38V8.87c0-1.18-0.39-2.22-1.61-2.22c-0.82,0-1.49,0.6-1.72,1.42
				c-0.05,0.18-0.09,0.43-0.09,0.68v4.85h-1.38V7.79z"/>
		</g>
	</g>
</g>
<g class="st0">
	<line class="st18" x1="61.24" y1="-5.47" x2="62.18" y2="48.53"/>
</g>
</svg>
